<?xml version="1.0" encoding="us-ascii" standalone="no"?><svg xmlns="http://www.w3.org/2000/svg" xmlns:xlink="http://www.w3.org/1999/xlink" contentStyleType="text/css" height="142px" preserveAspectRatio="none" style="width:523px;height:142px;background:#FFFFFF;" version="1.1" viewBox="0 0 523 142" width="523px" zoomAndPan="magnify"><defs/><g><!--class MeetkundigeFormules--><g id="elem_MeetkundigeFormules"><rect codeLine="1" fill="#F1F1F1" height="121.4531" id="MeetkundigeFormules" rx="2.5" ry="2.5" style="stroke:#181818;stroke-width:0.5;" width="502" x="7" y="7"/><ellipse cx="176.25" cy="27.1328" fill="#ADD1B2" rx="11" ry="11" style="stroke:#181818;stroke-width:1.0;"/><path d="M179.2188,32.7734 Q178.6406,33.0703 178,33.2109 Q177.3594,33.3672 176.6563,33.3672 Q174.1563,33.3672 172.8281,31.7266 Q171.5156,30.0703 171.5156,26.9453 Q171.5156,23.8203 172.8281,22.1641 Q174.1563,20.5078 176.6563,20.5078 Q177.3594,20.5078 178,20.6641 Q178.6563,20.8203 179.2188,21.1172 L179.2188,23.8359 Q178.5938,23.2578 178,22.9922 Q177.4063,22.7109 176.7813,22.7109 Q175.4375,22.7109 174.75,23.7891 Q174.0625,24.8516 174.0625,26.9453 Q174.0625,29.0391 174.75,30.1172 Q175.4375,31.1797 176.7813,31.1797 Q177.4063,31.1797 178,30.9141 Q178.5938,30.6328 179.2188,30.0547 L179.2188,32.7734 Z " fill="#000000"/><text fill="#000000" font-family="sans-serif" font-size="12" font-style="italic" lengthAdjust="spacing" textLength="48" x="250.25" y="23.1387">&#171;static&#187;</text><text fill="#000000" font-family="sans-serif" font-size="14" lengthAdjust="spacing" textLength="155" x="196.75" y="38.9639">MeetkundigeFormules</text><line style="stroke:#181818;stroke-width:0.5;" x1="8" x2="508" y1="47.2656" y2="47.2656"/><line style="stroke:#181818;stroke-width:0.5;" x1="8" x2="508" y1="55.2656" y2="55.2656"/><ellipse cx="18" cy="68.9141" fill="#84BE84" rx="3" ry="3" style="stroke:#038048;stroke-width:1.0;"/><text fill="#000000" font-family="sans-serif" font-size="14" lengthAdjust="spacing" text-decoration="underline" textLength="443" x="27" y="72.2607">OppervlakteRechthoek(lengte:double, breedte:double) : double</text><ellipse cx="18" cy="85.2109" fill="#84BE84" rx="3" ry="3" style="stroke:#038048;stroke-width:1.0;"/><text fill="#000000" font-family="sans-serif" font-size="14" lengthAdjust="spacing" text-decoration="underline" textLength="282" x="27" y="88.5576">OppervlakteCirkel(straal:double) : double</text><ellipse cx="18" cy="101.5078" fill="#84BE84" rx="3" ry="3" style="stroke:#038048;stroke-width:1.0;"/><text fill="#000000" font-family="sans-serif" font-size="14" lengthAdjust="spacing" text-decoration="underline" textLength="476" x="27" y="104.8545">VolumeBalk(lengte:double, breedte:double, hoogte:double) : double</text><ellipse cx="18" cy="117.8047" fill="#84BE84" rx="3" ry="3" style="stroke:#038048;stroke-width:1.0;"/><text fill="#000000" font-family="sans-serif" font-size="14" lengthAdjust="spacing" text-decoration="underline" textLength="375" x="27" y="121.1514">VolumeCilinder(straal:double, hoogte:double) : double</text></g><!--SRC=[ZOwn2eCm48RtFiMDble48WuLkfL21_UO_6Z8cKXowIA-Umj2eKDhRxhxuV_kqwnIeYiWBdjZ1rn2d38ZKLqdKM9rqz1oeDUSQDcIbMxpZFXWvGHtw57605Sm_22eJCWzewG-0kPz7wcYRVl1Qcrqu299L8ftYrtWFE6iUETrIMC8mnyc6x2rRBr1_DJu3bcV]--></g></svg>